<svg version="1.1" id="Layer_1" xmlns="http://www.w3.org/2000/svg" xmlns:xlink="http://www.w3.org/1999/xlink" x="0px" y="0px"
	 width="100%" viewBox="0 0 1280 1280" enable-background="new 0 0 1280 1280" xml:space="preserve">
<path fill="#FFFFFF" opacity="1.000000" stroke="none" 
	d="
M847.000000,1281.000000 
	C564.666687,1281.000000 282.833344,1281.000000 1.000000,1281.000000 
	C1.000000,854.333313 1.000000,427.666656 1.000000,1.000000 
	C427.666656,1.000000 854.333313,1.000000 1281.000000,1.000000 
	C1281.000000,427.666656 1281.000000,854.333313 1281.000000,1281.000000 
	C1136.500000,1281.000000 992.000000,1281.000000 847.000000,1281.000000 
M556.500000,278.994476 
	C508.173309,278.995026 459.846558,279.035614 411.519989,278.963379 
	C401.512634,278.948395 391.912292,280.969879 383.158752,285.503967 
	C357.463196,298.813629 342.855865,319.386292 342.858246,349.142029 
	C342.873352,538.281555 342.861084,727.421143 342.866211,916.560669 
	C342.866394,923.392395 342.490051,930.268188 343.134277,937.043091 
	C343.751862,943.537842 344.984833,950.067749 346.789398,956.339844 
	C354.783325,984.124756 387.896088,1003.231384 412.904449,1003.181824 
	C583.545959,1002.843506 754.188477,1003.005188 924.830688,1003.005310 
	C925.830566,1003.005310 926.831055,1003.027466 927.830139,1002.998779 
	C934.548950,1002.806030 938.983582,998.258179 939.002380,991.554443 
	C939.021057,984.890686 934.497009,980.217590 927.949158,979.900269 
	C924.830627,979.749146 921.693298,979.429626 918.626404,978.855652 
	C889.152893,973.340393 872.544678,940.334717 883.595520,914.983154 
	C890.998413,898.000610 906.773621,886.358704 925.313721,885.972351 
	C933.766296,885.796326 939.167358,880.343811 939.158997,871.977539 
	C938.965149,679.005371 939.010132,486.032990 939.008667,293.060669 
	C939.008545,282.548126 935.453552,278.995483 924.947327,278.995392 
	C802.464905,278.994110 679.982422,278.994507 556.500000,278.994476 
z"/>
<path fill="#5D78FF" opacity="1.000000" stroke="none" 
	d="
M557.000000,278.994476 
	C679.982422,278.994507 802.464905,278.994110 924.947327,278.995392 
	C935.453552,278.995483 939.008545,282.548126 939.008667,293.060669 
	C939.010132,486.032990 938.965149,679.005371 939.158997,871.977539 
	C939.167358,880.343811 933.766296,885.796326 925.313721,885.972351 
	C906.773621,886.358704 890.998413,898.000610 883.595520,914.983154 
	C872.544678,940.334717 889.152893,973.340393 918.626404,978.855652 
	C921.693298,979.429626 924.830627,979.749146 927.949158,979.900269 
	C934.497009,980.217590 939.021057,984.890686 939.002380,991.554443 
	C938.983582,998.258179 934.548950,1002.806030 927.830139,1002.998779 
	C926.831055,1003.027466 925.830566,1003.005310 924.830688,1003.005310 
	C754.188477,1003.005188 583.545959,1002.843506 412.904449,1003.181824 
	C387.896088,1003.231384 354.783325,984.124756 346.789398,956.339844 
	C344.984833,950.067749 343.751862,943.537842 343.134277,937.043091 
	C342.490051,930.268188 342.866394,923.392395 342.866211,916.560669 
	C342.861084,727.421143 342.873352,538.281555 342.858246,349.142029 
	C342.855865,319.386292 357.463196,298.813629 383.158752,285.503967 
	C391.912292,280.969879 401.512634,278.948395 411.519989,278.963379 
	C459.846558,279.035614 508.173309,278.995026 557.000000,278.994476 
M873.878296,978.224854 
	C873.069519,977.171936 872.235291,976.137512 871.455750,975.063416 
	C857.465515,955.786255 852.741333,934.574585 860.400146,911.836487 
	C863.457214,902.760193 869.450623,894.673035 874.482544,885.914001 
	C874.290894,885.711853 874.099243,885.509705 872.991028,885.181641 
	C719.832825,885.168884 566.674622,885.145813 413.516418,885.168762 
	C404.351929,885.170166 395.715698,887.609314 387.974335,892.504456 
	C368.372955,904.899353 361.551758,926.485107 367.589752,945.716553 
	C374.622131,968.115234 392.129486,979.892151 415.941956,979.884583 
	C566.767151,979.836365 717.592285,979.860962 868.417480,979.853455 
	C870.247620,979.853333 872.077820,979.748474 874.335144,979.766479 
	C874.443237,979.670898 874.652466,979.501526 874.644653,979.490662 
	C874.482788,979.268982 874.296143,979.065430 873.878296,978.224854 
M451.500000,302.000183 
	C442.725891,302.000183 433.951782,302.000183 425.234924,302.000183 
	C425.234924,489.022064 425.234924,675.380127 425.234924,861.579102 
	C589.050415,861.579102 752.431274,861.579102 915.682434,861.579102 
	C915.682434,674.905640 915.682434,488.652985 915.682434,302.000183 
	C761.080566,302.000183 606.790283,302.000183 451.500000,302.000183 
M365.895416,404.500000 
	C365.895416,562.743591 365.895416,720.987183 365.895416,880.155762 
	C375.163788,872.448181 384.731232,867.052673 395.526062,864.654602 
	C400.491272,863.551514 401.268341,861.429504 401.265778,856.948853 
	C401.161499,674.620911 401.176697,492.292938 401.176697,309.964966 
	C401.176697,308.081848 401.176697,306.198730 401.176697,304.197876 
	C382.358429,308.036591 365.839264,327.261749 365.893799,347.501709 
	C365.944092,366.167664 365.898621,384.833893 365.895416,404.500000 
z"/>
<path fill="#FFFFFF" opacity="1.000000" stroke="none" 
	d="
M452.000000,302.000183 
	C606.790283,302.000183 761.080566,302.000183 915.682434,302.000183 
	C915.682434,488.652985 915.682434,674.905640 915.682434,861.579102 
	C752.431274,861.579102 589.050415,861.579102 425.234924,861.579102 
	C425.234924,675.380127 425.234924,489.022064 425.234924,302.000183 
	C433.951782,302.000183 442.725891,302.000183 452.000000,302.000183 
z"/>
<path fill="#FFFFFF" opacity="1.000000" stroke="none" 
	d="
M874.107422,886.135620 
	C869.450623,894.673035 863.457214,902.760193 860.400146,911.836487 
	C852.741333,934.574585 857.465515,955.786255 871.455750,975.063416 
	C872.235291,976.137512 873.069519,977.171936 873.921387,978.744568 
	C873.964417,979.264282 873.907959,979.692566 873.907959,979.692505 
	C872.077820,979.748474 870.247620,979.853333 868.417480,979.853455 
	C717.592285,979.860962 566.767151,979.836365 415.941956,979.884583 
	C392.129486,979.892151 374.622131,968.115234 367.589752,945.716553 
	C361.551758,926.485107 368.372955,904.899353 387.974335,892.504456 
	C395.715698,887.609314 404.351929,885.170166 413.516418,885.168762 
	C566.674622,885.145813 719.832825,885.168884 873.476990,885.456787 
	C873.962952,885.731995 874.107483,886.135620 874.107422,886.135620 
z"/>
<path fill="#FFFFFF" opacity="1.000000" stroke="none" 
	d="
M365.895386,404.000000 
	C365.898621,384.833893 365.944092,366.167664 365.893799,347.501709 
	C365.839264,327.261749 382.358429,308.036591 401.176697,304.197876 
	C401.176697,306.198730 401.176697,308.081848 401.176697,309.964966 
	C401.176697,492.292938 401.161499,674.620911 401.265778,856.948853 
	C401.268341,861.429504 400.491272,863.551514 395.526062,864.654602 
	C384.731232,867.052673 375.163788,872.448181 365.895416,880.155762 
	C365.895416,720.987183 365.895416,562.743591 365.895386,404.000000 
z"/>
<path fill="#D6DDFF" opacity="1.000000" stroke="none" 
	d="
M874.295044,886.024780 
	C874.107483,886.135620 873.962952,885.731995 873.935303,885.519775 
	C874.099243,885.509705 874.290894,885.711853 874.295044,886.024780 
z"/>
<path fill="#D6DDFF" opacity="1.000000" stroke="none" 
	d="
M874.121582,979.729492 
	C873.907959,979.692566 873.964417,979.264282 874.039429,979.061279 
	C874.296143,979.065430 874.482788,979.268982 874.644653,979.490662 
	C874.652466,979.501526 874.443237,979.670898 874.121582,979.729492 
z"/>
</svg>